<mxfile host="65bd71144e">
    <diagram id="hqHV0Ouo1o6KEV6kxxDe" name="PÃ¡gina-1">
        <mxGraphModel dx="561" dy="411" grid="1" gridSize="10" guides="1" tooltips="1" connect="1" arrows="1" fold="1" page="1" pageScale="1" pageWidth="827" pageHeight="1169" math="0" shadow="0">
            <root>
                <mxCell id="0"/>
                <mxCell id="1" parent="0"/>
                <mxCell id="12" value="" style="edgeStyle=none;html=1;" edge="1" parent="1" source="2" target="11">
                    <mxGeometry relative="1" as="geometry"/>
                </mxCell>
                <mxCell id="2" value="&lt;b&gt;inicio&lt;/b&gt;" style="ellipse;whiteSpace=wrap;html=1;fillColor=#008a00;fontColor=#ffffff;strokeColor=#005700;" vertex="1" parent="1">
                    <mxGeometry x="200" y="30" width="90" height="60" as="geometry"/>
                </mxCell>
                <mxCell id="14" value="" style="edgeStyle=none;html=1;" edge="1" parent="1" source="11" target="13">
                    <mxGeometry relative="1" as="geometry"/>
                </mxCell>
                <mxCell id="11" value="n" style="shape=parallelogram;perimeter=parallelogramPerimeter;whiteSpace=wrap;html=1;fixedSize=1;fillColor=#60a917;fontColor=#ffffff;strokeColor=#2D7600;" vertex="1" parent="1">
                    <mxGeometry x="185" y="170" width="120" height="60" as="geometry"/>
                </mxCell>
                <mxCell id="16" value="" style="edgeStyle=none;html=1;" edge="1" parent="1" source="13" target="15">
                    <mxGeometry relative="1" as="geometry"/>
                </mxCell>
                <mxCell id="13" value="&lt;div style=&quot;color: rgb(212, 212, 212); background-color: rgb(30, 30, 30); font-family: &amp;quot;Droid Sans Mono&amp;quot;, &amp;quot;monospace&amp;quot;, monospace; font-size: 14px; line-height: 19px;&quot;&gt;&lt;div&gt;&lt;span style=&quot;color: #9cdcfe;&quot;&gt;d1&lt;/span&gt; =(&lt;span style=&quot;color: #9cdcfe;&quot;&gt;n&lt;/span&gt;%&lt;span style=&quot;color: #b5cea8;&quot;&gt;10&lt;/span&gt;)*&lt;span style=&quot;color: #b5cea8;&quot;&gt;1000&lt;/span&gt;)&lt;/div&gt;&lt;div&gt;&lt;span style=&quot;color: #9cdcfe;&quot;&gt;pe&lt;/span&gt; =(&lt;span style=&quot;color: #9cdcfe;&quot;&gt;n&lt;/span&gt;//&lt;span style=&quot;color: #b5cea8;&quot;&gt;10&lt;/span&gt;)&lt;/div&gt;&lt;div&gt;&lt;span style=&quot;color: #9cdcfe;&quot;&gt;d2&lt;/span&gt; =(&lt;span style=&quot;color: #9cdcfe;&quot;&gt;pe&lt;/span&gt;%&lt;span style=&quot;color: #b5cea8;&quot;&gt;10&lt;/span&gt;)*&lt;span style=&quot;color: #b5cea8;&quot;&gt;100&lt;/span&gt;)&lt;/div&gt;&lt;div&gt;&lt;span style=&quot;color: #9cdcfe;&quot;&gt;pe&lt;/span&gt; =(&lt;span style=&quot;color: #9cdcfe;&quot;&gt;pe&lt;/span&gt;//&lt;span style=&quot;color: #b5cea8;&quot;&gt;10&lt;/span&gt;)&lt;/div&gt;&lt;div&gt;&lt;span style=&quot;color: #9cdcfe;&quot;&gt;d3&lt;/span&gt; =(&lt;span style=&quot;color: #9cdcfe;&quot;&gt;pe&lt;/span&gt;%&lt;span style=&quot;color: #b5cea8;&quot;&gt;10&lt;/span&gt;)*&lt;span style=&quot;color: #b5cea8;&quot;&gt;10&lt;/span&gt;)&lt;/div&gt;&lt;div&gt;&lt;span style=&quot;color: #9cdcfe;&quot;&gt;d4&lt;/span&gt; =(&lt;span style=&quot;color: #9cdcfe;&quot;&gt;pe&lt;/span&gt;//&lt;span style=&quot;color: #b5cea8;&quot;&gt;10&lt;/span&gt;)&lt;/div&gt;&lt;div&gt;&lt;span style=&quot;color: #9cdcfe;&quot;&gt;ni&lt;/span&gt; =(&lt;span style=&quot;color: #9cdcfe;&quot;&gt;d1&lt;/span&gt;+&lt;span style=&quot;color: #9cdcfe;&quot;&gt;d2&lt;/span&gt;+&lt;span style=&quot;color: #9cdcfe;&quot;&gt;d3&lt;/span&gt;+&lt;span style=&quot;color: #9cdcfe;&quot;&gt;d4&lt;/span&gt;)&lt;/div&gt;&lt;/div&gt;" style="whiteSpace=wrap;html=1;fillColor=#1ba1e2;fontColor=#ffffff;strokeColor=#006EAF;" vertex="1" parent="1">
                    <mxGeometry x="147.5" y="260" width="195" height="170" as="geometry"/>
                </mxCell>
                <mxCell id="18" value="" style="edgeStyle=none;html=1;" edge="1" parent="1" source="15" target="17">
                    <mxGeometry relative="1" as="geometry"/>
                </mxCell>
                <mxCell id="15" value="ni" style="shape=document;whiteSpace=wrap;html=1;boundedLbl=1;fillColor=#6a00ff;fontColor=#ffffff;strokeColor=#3700CC;" vertex="1" parent="1">
                    <mxGeometry x="185" y="480" width="120" height="80" as="geometry"/>
                </mxCell>
                <mxCell id="17" value="fin" style="ellipse;whiteSpace=wrap;html=1;fillColor=#1ba1e2;fontColor=#ffffff;strokeColor=#006EAF;" vertex="1" parent="1">
                    <mxGeometry x="185" y="585" width="120" height="80" as="geometry"/>
                </mxCell>
            </root>
        </mxGraphModel>
    </diagram>
</mxfile>